<mxfile host="app.diagrams.net" modified="2023-07-24T03:08:24.164Z" agent="Mozilla/5.0 (Windows NT 10.0; Win64; x64) AppleWebKit/537.36 (KHTML, like Gecko) Chrome/114.0.0.0 Whale/3.21.192.18 Safari/537.36" version="21.6.1" etag="0u4d47f03rx0MDO-QpGf" type="github">
  <diagram name="페이지-1" id="z105akW6ssr-6lkBGic_">
    <mxGraphModel>
      <root>
        <mxCell id="0" />
        <mxCell id="1" parent="0" />
      </root>
    </mxGraphModel>
  </diagram>
</mxfile>
